HIERARCHY
ROOT joint_Root
{
	OFFSET 0.0 0.0 0.0
	CHANNELS 6 Xposition Yposition Zposition Zrotation Xrotation Yrotation 
	JOINT Hips
	{
		OFFSET 4.5925 91.4895 -427.239
		CHANNELS 6 Xposition Yposition Zposition Zrotation Xrotation Yrotation 
		JOINT Spine
		{
			OFFSET 15.7357 0.0 0.0
			CHANNELS 6 Xposition Yposition Zposition Zrotation Xrotation Yrotation 
			JOINT Chest
			{
				OFFSET 8.98455 -0.406207 0.0
				CHANNELS 6 Xposition Yposition Zposition Zrotation Xrotation Yrotation 
				JOINT Neck
				{
					OFFSET 16.3773 0.0 0.0
					CHANNELS 6 Xposition Yposition Zposition Zrotation Xrotation Yrotation 
					JOINT Head
					{
						OFFSET 6.45672 0.0 0.0
						CHANNELS 6 Xposition Yposition Zposition Zrotation Xrotation Yrotation 
						End Site
						{
							OFFSET 0.0 0.0 0.0
						}
					}
				}
				JOINT Shoulder_L
				{
					OFFSET 12.9942 -0.242716 4.98039
					CHANNELS 6 Xposition Yposition Zposition Zrotation Xrotation Yrotation 
					JOINT UpperArm_L
					{
						OFFSET 5.34809 0.0 0.0
						CHANNELS 6 Xposition Yposition Zposition Zrotation Xrotation Yrotation 
						JOINT LowerArm_L
						{
							OFFSET 24.3286 1.87007e-05 0.0
							CHANNELS 6 Xposition Yposition Zposition Zrotation Xrotation Yrotation 
							JOINT Hand_L
							{
								OFFSET 22.2916 0.0 0.0
								CHANNELS 6 Xposition Yposition Zposition Zrotation Xrotation Yrotation 
								End Site
								{
									OFFSET 0.0 0.0 0.0
								}
							}
						}
					}
				}
				JOINT Shoulder_R
				{
					OFFSET 12.9945 -0.242716 -4.98039
					CHANNELS 6 Xposition Yposition Zposition Zrotation Xrotation Yrotation 
					JOINT UpperArm_R
					{
						OFFSET -5.34813 0.0 0.0
						CHANNELS 6 Xposition Yposition Zposition Zrotation Xrotation Yrotation 
						JOINT LowerArm_R
						{
							OFFSET -24.3289 0.000322201 0.0
							CHANNELS 6 Xposition Yposition Zposition Zrotation Xrotation Yrotation 
							JOINT Hand_R
							{
								OFFSET -22.2915 -0.000108084 0.0
								CHANNELS 6 Xposition Yposition Zposition Zrotation Xrotation Yrotation 
								End Site
								{
									OFFSET 0.0 0.0 0.0
								}
							}
						}
					}
				}
			}
		}
		JOINT UpperLeg_L
		{
			OFFSET -2.19248 -6.46944 0.0
			CHANNELS 6 Xposition Yposition Zposition Zrotation Xrotation Yrotation 
			JOINT LowerLeg_L
			{
				OFFSET 39.0811 0.0 -1.23785e-05
				CHANNELS 6 Xposition Yposition Zposition Zrotation Xrotation Yrotation 
				JOINT Foot_L
				{
					OFFSET 40.9854 0.0 -1.26872e-05
					CHANNELS 6 Xposition Yposition Zposition Zrotation Xrotation Yrotation 
					JOINT Toes_L
					{
						OFFSET 11.7543 0.0 0.0
						CHANNELS 6 Xposition Yposition Zposition Zrotation Xrotation Yrotation 
						End Site
						{
							OFFSET 0.0 0.0 0.0
						}
					}
				}
			}
		}
		JOINT UpperLeg_R
		{
			OFFSET -2.19251 6.46944 0.0
			CHANNELS 6 Xposition Yposition Zposition Zrotation Xrotation Yrotation 
			JOINT LowerLeg_R
			{
				OFFSET -39.0811 -0.00228153 -0.0401928
				CHANNELS 6 Xposition Yposition Zposition Zrotation Xrotation Yrotation 
				JOINT Foot_R
				{
					OFFSET -40.9854 0.0 0.0
					CHANNELS 6 Xposition Yposition Zposition Zrotation Xrotation Yrotation 
					JOINT Toes_R
					{
						OFFSET -11.7543 0.0 0.0
						CHANNELS 6 Xposition Yposition Zposition Zrotation Xrotation Yrotation 
						End Site
						{
							OFFSET 0.0 0.0 0.0
						}
					}
				}
			}
		}
	}
}
MOTION
Frames:	9
Frame Time:	0.0333333
0.000000 0.000000 0.000000 0.000000 0.000000 -0.000000 -0.759821 91.428200 1.402690 89.131500 -3.084950 4.427430 15.735700 0.000005 -0.000001 83.041000 88.235700 -83.161800 8.984550 -0.406207 -0.000000 -4.263870 -0.414521 -0.257246 16.377300 -0.000001 -0.000001 8.345510 -4.057600 3.068420 6.456720 -0.000001 -0.000000 7.097970 -4.513180 -1.509980 12.994200 -0.242716 4.980390 -83.908500 -11.101900 -61.003600 5.348090 -0.000007 -0.000001 -60.498000 -59.156100 -115.232000 24.328600 0.000019 0.000005 12.103600 14.042000 -41.471200 22.291600 -0.000001 0.000005 24.477400 5.282310 0.562748 12.994500 -0.242716 -4.980390 93.913600 -9.535780 -67.561500 -5.348130 -0.000001 -0.000004 -59.099100 -54.054200 -111.500000 -24.328900 0.000322 -0.000009 -3.997640 -4.209060 -43.588000 -22.291500 -0.000108 -0.000004 24.473700 5.521390 -7.420910 -2.192480 -6.469440 -0.000000 -174.921000 -12.015600 -2.031490 39.081100 -0.000007 -0.000012 -0.185179 0.375299 26.262800 40.985400 -0.000006 -0.000013 -0.543396 5.166220 -69.532400 11.754300 -0.000000 0.000003 -0.000166 -0.001581 -16.637500 -2.192510 6.469440 -0.000001 175.165000 22.320800 179.323000 -39.081100 -0.002282 -0.040193 -0.052156 0.116426 25.473600 -40.985400 0.000008 0.000006 6.894050 18.369700 -71.328300 -11.754300 -0.000006 -0.000006 -0.001905 -0.027527 -17.692400
0.000000 0.000000 0.000000 0.000000 0.000000 -0.000000 -0.801570 91.441700 1.376190 89.148900 -3.000820 4.324180 15.735700 0.000005 -0.000001 82.052000 88.204800 -82.166300 8.984550 -0.406207 -0.000000 -4.210700 -0.484152 -0.246515 16.377300 -0.000001 -0.000001 8.241880 -4.094940 3.017550 6.456720 -0.000001 -0.000000 6.973230 -4.540760 -1.455990 12.994200 -0.242716 4.980390 -83.884700 -11.104300 -60.913100 5.348090 -0.000007 -0.000001 -60.957400 -59.319500 -115.773000 24.328600 0.000019 0.000005 12.011100 14.155900 -41.021900 22.291600 -0.000001 0.000005 24.431200 5.279610 0.636855 12.994500 -0.242716 -4.980390 93.923000 -9.507310 -67.452800 -5.348130 -0.000001 -0.000004 -58.946100 -54.349500 -111.532000 -24.328900 0.000322 -0.000009 -3.974360 -4.227070 -43.299100 -22.291500 -0.000108 -0.000004 24.288100 5.520220 -7.371310 -2.192480 -6.469440 -0.000000 -174.958000 -11.876500 -2.132510 39.081100 -0.000007 -0.000012 -0.182517 0.371188 26.184000 40.985400 -0.000006 -0.000013 -0.580106 5.129040 -69.465500 11.754300 -0.000000 0.000003 -0.000171 -0.001619 -16.638900 -2.192510 6.469440 -0.000001 175.240000 22.348300 179.220000 -39.081100 -0.002282 -0.040193 -0.051836 0.116002 25.426200 -40.985400 0.000008 0.000006 6.915160 18.262800 -71.295200 -11.754300 -0.000006 -0.000006 -0.002017 -0.028934 -17.749600
0.000000 0.000000 0.000000 0.000000 0.000000 -0.000000 -0.848630 91.472800 1.337050 89.119200 -2.906270 4.131160 15.735700 0.000005 -0.000001 81.388000 88.210700 -81.477100 8.984550 -0.406207 -0.000000 -4.228180 -0.526158 -0.197670 16.377300 -0.000001 -0.000001 8.180090 -4.133210 2.994390 6.456720 -0.000001 -0.000000 6.807750 -4.533470 -1.425630 12.994200 -0.242716 4.980390 -83.830100 -11.174800 -60.847300 5.348090 -0.000007 -0.000001 -61.567100 -59.423900 -116.312000 24.328600 0.000019 0.000005 12.004500 14.268400 -40.786100 22.291600 -0.000001 0.000005 24.396200 5.274120 0.786443 12.994500 -0.242716 -4.980390 93.917900 -9.449410 -67.356200 -5.348130 -0.000001 -0.000004 -58.536400 -54.733300 -111.459000 -24.328900 0.000322 -0.000009 -4.089700 -4.417890 -42.859800 -22.291500 -0.000108 -0.000004 23.982800 5.518170 -7.283990 -2.192480 -6.469440 -0.000000 -174.923000 -11.903900 -2.305000 39.081100 -0.000007 -0.000012 -0.185401 0.379412 26.042900 40.985400 -0.000006 -0.000013 -0.592787 5.252100 -69.343300 11.754300 -0.000000 0.000003 -0.000161 -0.001541 -16.636000 -2.192510 6.469440 -0.000001 175.377000 22.551000 179.088000 -39.081100 -0.002282 -0.040193 -0.048085 0.108971 25.251300 -40.985400 0.000008 0.000006 7.025480 18.353800 -71.230500 -11.754300 -0.000006 -0.000006 -0.001794 -0.026110 -17.634800
0.000000 0.000000 0.000000 0.000000 0.000000 -0.000000 -0.876681 91.498200 1.319500 89.094200 -2.909670 3.949380 15.735700 0.000005 -0.000001 81.785200 88.210400 -81.849300 8.984550 -0.406207 -0.000000 -4.223890 -0.504335 -0.146893 16.377300 -0.000001 -0.000001 8.119760 -4.089020 2.979840 6.456720 -0.000001 -0.000000 6.723100 -4.469560 -1.380270 12.994200 -0.242716 4.980390 -83.823500 -11.167700 -60.805800 5.348090 -0.000007 -0.000001 -62.180500 -59.441000 -116.914000 24.328600 0.000019 0.000005 11.850400 14.181200 -40.579400 22.291600 -0.000001 0.000005 24.338700 5.271550 0.856278 12.994500 -0.242716 -4.980390 93.910200 -9.387100 -67.262800 -5.348130 -0.000001 -0.000004 -58.355300 -54.898500 -111.526000 -24.328900 0.000322 -0.000009 -4.095760 -4.485030 -42.472500 -22.291500 -0.000108 -0.000004 23.736200 5.517440 -7.253610 -2.192480 -6.469440 -0.000000 -174.915000 -12.013100 -2.439780 39.081100 -0.000007 -0.000012 -0.179309 0.368984 25.917800 40.985400 -0.000006 -0.000013 -0.604606 5.294930 -69.258200 11.754300 -0.000000 0.000003 -0.000165 -0.001578 -16.637400 -2.192510 6.469440 -0.000001 175.459000 22.796400 178.972000 -39.081100 -0.002282 -0.040193 -0.047656 0.108852 25.090100 -40.985400 0.000008 0.000006 7.052260 18.579100 -71.154100 -11.754300 -0.000006 -0.000006 -0.001879 -0.027186 -17.678500
0.000000 0.000000 0.000000 0.000000 0.000000 -0.000000 -0.909860 91.518100 1.311140 89.044400 -2.945660 3.857670 15.735700 0.000005 -0.000001 82.516200 88.182000 -82.549800 8.984550 -0.406207 -0.000000 -4.161290 -0.469723 -0.084293 16.377300 -0.000001 -0.000001 8.071130 -4.033390 2.998400 6.456720 -0.000001 -0.000000 6.655750 -4.374090 -1.343300 12.994200 -0.242716 4.980390 -83.852300 -11.093500 -60.760000 5.348090 -0.000007 -0.000001 -62.538900 -59.347900 -117.134000 24.328600 0.000019 0.000005 11.899000 14.082800 -40.892000 22.291600 -0.000001 0.000005 24.241400 5.265070 1.030760 12.994500 -0.242716 -4.980390 93.874100 -9.289840 -67.242200 -5.348130 -0.000001 -0.000004 -58.359100 -54.774900 -111.431000 -24.328900 0.000322 -0.000009 -4.144740 -4.514680 -42.625100 -22.291500 -0.000108 -0.000004 23.584400 5.517330 -7.248680 -2.192480 -6.469440 -0.000000 -174.847000 -12.023300 -2.476110 39.081100 -0.000007 -0.000012 -0.183159 0.378627 25.815400 40.985400 -0.000006 -0.000013 -0.634528 5.322510 -69.203000 11.754300 -0.000000 0.000003 -0.000163 -0.001557 -16.636600 -2.192510 6.469440 -0.000001 175.571000 22.892300 178.937000 -39.081100 -0.002282 -0.040193 -0.043631 0.100874 24.955900 -40.985400 0.000008 0.000006 7.180290 18.666300 -71.130100 -11.754300 -0.000006 -0.000006 -0.001781 -0.025942 -17.628000
0.000000 0.000000 0.000000 0.000000 0.000000 -0.000000 -0.935048 91.525500 1.300140 89.029000 -2.980020 3.747140 15.735700 0.000005 -0.000001 82.930800 88.138300 -82.944600 8.984550 -0.406207 -0.000000 -4.071030 -0.456489 -0.043818 16.377300 -0.000001 -0.000001 8.012050 -3.980750 2.940600 6.456720 -0.000001 -0.000000 6.471270 -4.276350 -1.210340 12.994200 -0.242716 4.980390 -83.950100 -10.894600 -60.718300 5.348090 -0.000007 -0.000001 -62.412300 -59.123300 -116.533000 24.328600 0.000019 0.000005 11.910400 13.497000 -42.105100 22.291600 -0.000001 0.000005 24.252500 5.254840 1.304810 12.994500 -0.242716 -4.980390 93.786700 -9.054860 -67.190500 -5.348130 -0.000001 -0.000004 -58.250100 -54.244900 -110.804000 -24.328900 0.000322 -0.000009 -4.310110 -4.500390 -43.838700 -22.291500 -0.000108 -0.000004 23.716300 5.509510 -6.922970 -2.192480 -6.469440 -0.000000 -174.857000 -11.992500 -2.585860 39.081100 -0.000007 -0.000012 -0.180816 0.374228 25.788700 40.985400 -0.000006 -0.000013 -0.668760 5.237410 -69.176200 11.754300 -0.000000 0.000003 -0.000175 -0.001652 -16.640100 -2.192510 6.469440 -0.000001 175.620000 22.932000 178.844000 -39.081100 -0.002282 -0.040193 -0.052005 0.119276 24.880600 -40.985400 0.000008 0.000006 7.004050 18.793500 -71.021500 -11.754300 -0.000006 -0.000006 -0.001558 -0.023042 -17.510100
0.000000 0.000000 0.000000 0.000000 0.000000 -0.000000 -0.958872 91.538500 1.288740 89.014400 -3.002820 3.711720 15.735700 0.000005 -0.000001 83.800000 88.059600 -83.801000 8.984550 -0.406207 -0.000000 -3.907950 -0.418765 -0.016239 16.377300 -0.000001 -0.000001 7.840320 -3.928460 2.872880 6.456720 -0.000001 -0.000000 6.261260 -4.254040 -1.041250 12.994200 -0.242716 4.980390 -84.082400 -10.635100 -60.680300 5.348090 -0.000007 -0.000001 -62.063100 -58.418800 -114.835000 24.328600 0.000019 0.000005 12.155900 12.388600 -45.115600 22.291600 -0.000001 0.000005 23.976400 5.238230 1.741580 12.994500 -0.242716 -4.980390 93.605400 -8.578220 -67.099200 -5.348130 -0.000001 -0.000004 -57.235800 -53.487000 -108.727000 -24.328900 0.000322 -0.000009 -4.764990 -4.513390 -46.640500 -22.291500 -0.000108 -0.000004 24.025200 5.495880 -6.369430 -2.192480 -6.469440 -0.000000 -174.829000 -12.063200 -2.593590 39.081100 -0.000007 -0.000012 -0.179844 0.373321 25.722200 40.985400 -0.000006 -0.000013 -0.676812 5.275260 -69.129900 11.754300 -0.000000 0.000003 -0.000176 -0.001664 -16.640600 -2.192510 6.469440 -0.000001 175.671000 22.983600 178.835000 -39.081100 -0.002282 -0.040193 -0.047838 0.110633 24.813200 -40.985400 0.000008 0.000006 7.132420 18.839400 -71.030800 -11.754300 -0.000006 -0.000006 -0.001577 -0.023285 -17.519900
0.000000 0.000000 0.000000 0.000000 0.000000 -0.000000 -0.973409 91.541200 1.265320 89.015700 -3.013520 3.671290 15.735700 0.000005 -0.000001 84.602300 87.968200 -84.583400 8.984550 -0.406207 -0.000000 -3.720340 -0.383928 0.025289 16.377300 -0.000001 -0.000001 7.546650 -3.865070 2.777410 6.456720 -0.000001 -0.000000 6.005990 -4.262620 -0.946828 12.994200 -0.242716 4.980390 -84.283500 -10.291900 -60.738100 5.348090 -0.000007 -0.000001 -61.002500 -57.315700 -111.309000 24.328600 0.000019 0.000005 12.928900 10.978600 -50.321300 22.291600 -0.000001 0.000005 23.578100 5.226290 2.051770 12.994500 -0.242716 -4.980390 93.360600 -7.974210 -67.057900 -5.348130 -0.000001 -0.000004 -54.951800 -52.539600 -104.644000 -24.328900 0.000322 -0.000009 -5.201650 -4.174840 -51.343500 -22.291500 -0.000108 -0.000004 24.441400 5.485410 -5.957320 -2.192480 -6.469440 -0.000000 -174.818000 -12.112600 -2.646070 39.081100 -0.000007 -0.000012 -0.180701 0.375207 25.715900 40.985400 -0.000006 -0.000013 -0.678322 5.325060 -69.107400 11.754300 -0.000000 0.000003 -0.000179 -0.001686 -16.641400 -2.192510 6.469440 -0.000001 175.693000 23.052200 178.767000 -39.081100 -0.002282 -0.040193 -0.049629 0.114487 24.816800 -40.985400 0.000008 0.000006 7.111310 18.905300 -71.001800 -11.754300 -0.000006 -0.000006 -0.001452 -0.021629 -17.452600
0.000000 0.000000 0.000000 0.000000 0.000000 -0.000000 -0.972505 91.540100 1.218070 89.011200 -3.013970 3.673810 15.735700 0.000005 -0.000001 86.211900 87.848700 -86.157100 8.984550 -0.406207 -0.000000 -3.472800 -0.289476 0.101014 16.377300 -0.000001 -0.000001 7.128850 -3.752970 2.550440 6.456720 -0.000001 -0.000000 5.582050 -4.275770 -0.807329 12.994200 -0.242716 4.980390 -84.618600 -9.725780 -60.854900 5.348090 -0.000007 -0.000001 -59.093400 -55.589000 -105.863000 24.328600 0.000019 0.000005 14.015900 9.078450 -57.703000 22.291600 -0.000001 0.000005 22.961900 5.219820 2.217410 12.994500 -0.242716 -4.980390 93.081000 -7.293730 -67.024600 -5.348130 -0.000001 -0.000004 -51.402000 -51.363700 -98.472700 -24.328900 0.000322 -0.000009 -5.254060 -3.299840 -57.961900 -22.291500 -0.000108 -0.000004 24.704400 5.476760 -5.625940 -2.192480 -6.469440 -0.000000 -174.801000 -12.185500 -2.693970 39.081100 -0.000007 -0.000012 -0.182957 0.379200 25.756700 40.985400 -0.000006 -0.000013 -0.653096 5.418280 -69.095200 11.754300 -0.000000 0.000003 -0.000189 -0.001765 -16.644200 -2.192510 6.469440 -0.000001 175.706000 23.072300 178.713000 -39.081100 -0.002282 -0.040193 -0.050641 0.116436 24.861900 -40.985400 0.000008 0.000006 7.164340 18.915800 -71.009200 -11.754300 -0.000006 -0.000006 -0.001466 -0.021825 -17.460600
